Coordinates
version=1
nRows=5
nColumns=40
inDegrees=yes

Units are S.I. units (second, meters, Newtons, ...)
Angles are in degrees.

endheader
time	pelvis_tilt	pelvis_list	pelvis_rotation	pelvis_tx	pelvis_ty	pelvis_tz	hip_flexion_r	hip_adduction_r	hip_rotation_r	knee_angle_r	knee_angle_r_beta	ankle_angle_r	subtalar_angle_r	mtp_angle_r	hip_flexion_l	hip_adduction_l	hip_rotation_l	knee_angle_l	knee_angle_l_beta	ankle_angle_l	subtalar_angle_l	mtp_angle_l	lumbar_extension	lumbar_bending	lumbar_rotation	arm_flex_r	arm_add_r	arm_rot_r	elbow_flex_r	pro_sup_r	wrist_flex_r	wrist_dev_r	arm_flex_l	arm_add_l	arm_rot_l	elbow_flex_l	pro_sup_l	wrist_flex_l	wrist_dev_l
     26.59000000	     -2.96004031	     -6.74967152	     -2.70585554	      0.89200565	      0.92511871	      0.50139127	     17.29894868	      5.77374187	    -11.97132518	     19.33468254	     19.33468254	      7.12059512	     -5.05344007	     -3.79613178	      7.76134517	    -11.97549483	     -6.52959419	     43.46377807	     43.46377807	     12.67438210	    -18.10198941	     -4.12274087	     -8.42410999	      9.04518092	      2.31712663	      0.88388807	    -11.40168120	     -7.82124054	     28.81273402	     46.21335391	      0.00000000	      0.00000000	     13.94215990	    -11.26651559	     -8.02118251	     65.87206756	     47.52530763	      0.00000000	      0.00000000
     26.60257143	     -2.97359123	     -6.92611991	     -2.29087530	      0.89151571	      0.92545073	      0.50364818	     16.60050699	      6.04695714	    -12.44148622	     18.93854921	     18.93854921	      7.51483831	     -4.71664822	     -4.02653480	     10.06436704	    -12.68868782	     -5.52004309	     47.73717442	     47.73717442	     10.93228263	    -18.46692765	     -3.57700608	     -8.28388149	      9.18694004	      2.04361341	      2.31208330	    -11.48206613	     -7.65789556	     30.13495408	     46.15677409	      0.00000000	      0.00000000	     13.07396955	    -10.90232258	     -7.89399069	     63.57038236	     47.47237223	      0.00000000	      0.00000000
     26.61514286	     -2.82905872	     -7.05130418	     -1.93736376	      0.89087317	      0.92598147	      0.50589664	     15.79087099	      6.26517480	    -12.90139583	     18.63763048	     18.63763048	      7.79430775	     -4.36694517	     -4.21992212	     12.18898135	    -13.26933700	     -4.56855354	     51.75411207	     51.75411207	      9.26058040	    -18.70206181	     -2.50768322	     -8.38143094	      9.13709119	      1.99461624	      3.82009687	    -11.62655687	     -7.47637929	     31.52479222	     46.09742028	      0.00000000	      0.00000000	     12.38158434	    -10.40807096	     -7.75134344	     61.41938729	     47.42216601	      0.00000000	      0.00000000
     26.62771429	     -2.79891098	     -6.89047844	     -1.59080215	      0.89001481	      0.92642830	      0.50755421	     15.13324852	      6.07629746	    -13.57178251	     18.38004051	     18.38004051	      8.02136060	     -3.50555448	     -4.92323273	     14.66791753	    -13.11328355	     -3.16566270	     55.92493850	     55.92493850	     10.03918979	    -18.59034186	      5.27926235	     -8.27933918	      8.94818686	      3.03941892	      3.52532887	    -12.50115684	     -5.76344677	     36.11802578	     45.79245805	      0.00000000	      0.00000000	     13.88132048	     -8.98002976	     -7.93668047	     54.45131790	     47.33049378	      0.00000000	      0.00000000
     26.64028571	     -2.73194375	     -6.92499356	     -1.22817033	      0.88907450	      0.92677702	      0.50948001	     14.40673106	      6.20594380	    -13.94883530	     18.03601025	     18.03601025	      8.32247149	     -3.17873227	     -5.01160262	     16.85060772	    -13.39617487	     -2.20745400	     59.22010142	     59.22010142	      8.83501854	    -18.71191781	      6.87307737	     -8.35572089	      8.87356392	      2.67142509	      5.06459799	    -12.68968210	     -5.46827752	     38.26978324	     45.70170819	      0.00000000	      0.00000000	     12.83812239	     -8.86107016	     -7.59000839	     52.48654893	     47.25652558	      0.00000000	      0.00000000
